<svg xmlns="http://www.w3.org/2000/svg" width="256" height="256"><path fill-opacity=".016" d="M0 128.004v128.004l128.25-.254 128.25-.254.254-127.75L257.008 0H0v128.004m.485.496c0 70.4.119 99.053.265 63.672.146-35.38.146-92.98 0-128C.604 29.153.485 58.1.485 128.5" fill="#1976D2" fill-rule="evenodd"/><path fill-opacity=".251" d="M161 31.5c0 .825-.872 1.5-1.937 1.5-1.671 0-1.856.502-1.344 3.655.426 2.629.268 3.455-.563 2.941-1.837-1.135-3.454.34-2.126 1.941 1.187 1.429.23 4.217-1.53 4.458-.55.075-.862.807-.693 1.627.198.963-.334 1.383-1.5 1.185-1.048-.178-1.698.229-1.548.971.365 1.796-2.504 2.678-4.183 1.285-1.424-1.181-2.993.059-3.083 2.437-.021.55-.928.846-2.015.657a283.491 283.491 0 00-2.978-.5c-.55-.086-.875.598-.723 1.52.18 1.091-.518 1.79-2 2-3.127.444-3.127 4.202 0 4.646 1.482.21 2.18.909 2 2-.218 1.319.389 1.614 2.844 1.38 2.51-.238 3.235.137 3.7 1.915.479 1.835.833 1.999 2.076.967 1.561-1.295 4.402-.408 4.532 1.415.039.55.634 1 1.321 1 .688 0 1.25.563 1.25 1.25 0 .688.41 1.21.91 1.16 1.748-.172 2.805 3.126 1.505 4.693-1.032 1.243-.868 1.597.967 2.076 1.778.465 2.153 1.19 1.915 3.7-.238 2.504.049 3.063 1.453 2.827 1.161-.195 1.75.353 1.75 1.628 0 2.697 2.3 4.466 3.824 2.942.647-.647 1.176-2.034 1.176-3.083 0-1.325.481-1.722 1.575-1.303 1.261.484 1.51-.014 1.25-2.494-.179-1.705.125-3.092.675-3.083 2.104.036 3.571-2.022 2.426-3.402-1.174-1.414-.339-3.785 1.034-2.936.79.489 4.697-4.57 4.141-5.363-.754-1.076 2.538-1.84 4.169-.967 1.52.813 1.981.609 2.421-1.07.413-1.579 1.343-2.075 3.894-2.075 2.485 0 3.211-.367 2.807-1.42-.358-.933.25-1.534 1.771-1.75 3.364-.479 3.607-3.599.344-4.418-1.788-.448-2.444-1.135-2.054-2.151.452-1.177-.082-1.396-2.526-1.037-2.578.378-3.255.044-4.029-1.993-.766-2.014-1.192-2.232-2.402-1.228-1.507 1.251-4.721.688-4.255-.745.142-.438-.753-2.086-1.991-3.662S173 44.331 173 45.065c0 1.053-.258 1.077-1.225.11-.947-.947-.957-1.653-.045-3.115 1.18-1.889.443-3.308-2.193-4.225-.53-.184-.833-1.571-.675-3.082.226-2.151-.054-2.617-1.287-2.143-1.031.395-1.575.049-1.575-1.003 0-1.047-.87-1.607-2.5-1.607-1.556 0-2.5.567-2.5 1.5m-31.805 28c.02 1.65.244 2.204.498 1.231.254-.973.237-2.323-.037-3-.274-.677-.481.119-.461 1.769m67.348-.569c-.317.512-.118 1.213.441 1.559.559.345 1.016-.074 1.016-.931 0-1.757-.6-2.015-1.457-.628M26.685 62.378c-.291.758-.058 1.849.518 2.425.659.659.767 2.832.291 5.872-.416 2.654-.961 4.26-1.211 3.569-.948-2.624-2.316.066-1.7 3.345.9 4.8-.867 6.632-6.012 6.229-2.823-.22-3.996.06-3.827.914.327 1.652-3.968 2.636-8.112 1.859-4.33-.813-6.566 1.332-4.031 3.867.919.919 2.042 1.299 2.495.846.454-.454 2.826-.666 5.272-.471 3.543.282 4.561.789 5.007 2.493.405 1.549.862 1.837 1.653 1.046.637-.637 2.428-.824 4.283-.448 2.694.546 3.238 1.146 3.502 3.861.194 1.989-.139 3.215-.872 3.215-.892 0-.88.369.05 1.489.68.819 1.583 1.274 2.009 1.011.425-.263 1.043.53 1.373 1.761.925 3.452.736 7.739-.342 7.739-1.38 0-.15 2.74 1.517 3.38 1.698.652 4.91-2.322 3.756-3.476-1.039-1.039-.383-10.071.683-9.412.433.267 1.342-.184 2.022-1.003.926-1.116.94-1.489.053-1.489-.76 0-1.008-1.105-.694-3.094.268-1.702.632-3.213.81-3.357 1.07-.87 6.822-1.338 6.822-.555 0 .519.647.695 1.437.392.79-.303 1.21-1.142.934-1.863-.591-1.539 8.145-2.607 9.582-1.17.48.48 1.362.57 1.96.201 1.613-.997 1.316-5.252-.413-5.916-.825-.316-1.5-.139-1.5.393 0 1.189-6.991 1.261-8.835.092-.735-.466-1.311-1.246-1.28-1.735.031-.488-1.683-.741-3.809-.562-2.125.179-4.163-.157-4.527-.747-1.256-2.032-1.499-5.434-.477-6.666 1.145-1.38-.412-2.939-1.972-1.975-1.107.684-2.066-8.597-1.013-9.81C33.395 63.121 31.883 61 29.5 61c-1.257 0-2.524.62-2.815 1.378m197.354 19.075c-.706.851-1.791 1.559-2.411 1.574-2.01.048-8.628 6.941-8.628 8.986 0 1.1-.67 1.987-1.5 1.987-1.216 0-1.5 1.615-1.5 8.534v8.533l-20.425 20.467L169.15 152h-11.739l-14.206-14.327L129 123.345v-6.591c0-7.315-1.534-11.057-6.616-16.138-5.337-5.337-8.716-6.616-17.485-6.616-6.659 0-8.54.385-11.669 2.387C84.932 101.696 81 108.375 81 117.162v6.352l-25.757 25.743L29.486 175h-6.875c-8.1 0-10.948 1.432-17.94 9.022L0 189.094v11.346c0 9.163.289 11.457 1.5 11.922.825.316 1.5 1.173 1.5 1.904 0 1.541 6.481 7.976 9.684 9.616 3.008 1.54 19.789 1.441 22.487-.132 3.83-2.234 8.363-7.155 10.621-11.531 1.679-3.255 2.208-6.012 2.208-11.507v-7.226l25.757-25.743L99.514 142h11.72l13.88 13.75 13.881 13.75.002 6.219c.003 7.118 2.473 12.923 7.564 17.781 5.426 5.178 8.892 6.5 17.04 6.5 6.226 0 8.089-.411 11.427-2.518 8.457-5.338 12.01-11.212 12.692-20.982l.489-7 20.145-20.274 20.146-20.275 7.453.165c4.827.107 7.587-.236 7.833-.975.21-.628.846-1.141 1.415-1.141 1.394 0 8.799-7.475 8.799-8.882 0-.615.45-1.118 1-1.118.609 0 1-4.5 1-11.5 0-6.446-.41-11.5-.933-11.5-.513 0-1.225-.922-1.583-2.05-.858-2.703-7.152-8.95-9.017-8.95-.807 0-1.467-.616-1.467-1.369 0-2.123-17.212-2.286-18.961-.178m-61.77 12.24c.973.254 2.323.237 3-.037.677-.274-.119-.481-1.769-.461-1.65.02-2.204.244-1.231.498" fill="#1976D2" fill-rule="evenodd"/><path fill-opacity=".367" d="M138.5 56c.34.55.816 1 1.059 1s.441-.45.441-1-.477-1-1.059-1-.781.45-.441 1m48.5.059c0 .582.45.781 1 .441s1-.816 1-1.059-.45-.441-1-.441-1 .477-1 1.059m37.203 26.846c-8.506 4.358-12.839 11.729-13.398 22.791-.201 3.958-.587 7.333-.859 7.5-.273.167-9.484 9.142-20.471 19.943l-19.975 19.64-6.5-.299-6.5-.299-13.75-13.696L129 124.788v-5.458c0-14.392-12.59-26.627-25.757-25.032C90.715 95.815 82 105.626 82 118.212v6.292l-25.924 25.748L30.152 176h-7.454c-5.405 0-7.795.412-8.698 1.5-.685.825-1.773 1.5-2.419 1.5C9.79 179 3 186.354 3 188.292c0 .939-.675 1.708-1.5 1.708-1.233 0-1.5 1.778-1.5 10 0 5.5.385 10 .855 10s2.085 1.946 3.588 4.324c1.503 2.378 4.916 5.753 7.585 7.5 4.369 2.86 5.604 3.176 12.412 3.176 4.373 0 7.56-.422 7.56-1 0-.55.674-1 1.497-1 2.408 0 9.21-6.763 11.445-11.379 1.497-3.094 2.058-6.228 2.058-11.503v-7.25l25.7-25.934L98.399 141H111.526l14.237 14.263L140 169.525v5.61c0 13.951 9.777 23.865 23.534 23.865C177.01 199 187 188.838 187 175.131v-5.936l20.125-20.098L227.25 129h6.906c5.217 0 7.048-.367 7.482-1.5.317-.825 1.413-1.5 2.436-1.5 2.464 0 8.926-6.539 8.926-9.033 0-1.082.675-1.967 1.5-1.967 1.228 0 1.5-1.722 1.5-9.5 0-7.778-.272-9.5-1.5-9.5-.825 0-1.5-.831-1.5-1.847 0-2.452-6.141-8.674-11.016-11.161-4.797-2.447-13.094-2.488-17.781-.087M166.5 84c.34.55.816 1 1.059 1s.441-.45.441-1-.477-1-1.059-1-.781.45-.441 1" fill="#1976D2" fill-rule="evenodd"/><path fill-opacity=".983" d="M96.677 97.426C87.336 102.002 83 108.762 83 118.746v5.768l-26.257 26.243L30.486 177h-6.763c-5.561 0-7.515.467-10.993 2.627-5.028 3.122-8.644 7.164-8.694 9.717-.02 1.014-.936 2.079-2.036 2.366-1.783.467-2 1.364-2 8.29 0 6.926.217 7.823 2 8.29 1.165.304 2 1.364 2 2.537C4 213.355 12.518 222 15.008 222c1.017 0 2.524.675 3.349 1.5 1.955 1.955 9.021 1.955 10.643 0 .685-.825 2.221-1.5 3.414-1.5 2.567 0 9.594-6.999 11.951-11.904C45.406 207.93 46 204.111 46 199.589v-7.103l26.257-26.243L98.514 140H112.173l14.413 14.4L141 168.8v5.517c0 16.191 13.65 27.216 28.353 22.901 10.28-3.017 16.647-11.869 16.647-23.143v-5.671l19.5-19.353c10.725-10.644 19.5-19.93 19.5-20.635 0-.704-.844-1.549-1.875-1.876-2.831-.899-9.015-7.285-10.443-10.784l-1.262-3.094-20.341 20.284-20.341 20.283-7.119.298-7.119.298-14.404-14.412L127.691 125l.175-5.328c.33-10.108-6.066-19.556-15.537-22.951-6.397-2.293-9.851-2.138-15.652.705" fill="#1976D2" fill-rule="evenodd"/></svg>